<?xml version="1.0" encoding="UTF-8"?>
<svg width="158px" height="158px" viewBox="0 0 158 158" version="1.1" xmlns="http://www.w3.org/2000/svg" xmlns:xlink="http://www.w3.org/1999/xlink">
    <!-- Generator: Sketch 40 (33762) - http://www.bohemiancoding.com/sketch -->
    <title>SMB</title>
    <desc>Created with Sketch.</desc>
    <defs></defs>
    <g id="Juju-Icons" stroke="none" stroke-width="1" fill="none" fill-rule="evenodd">
        <g id="SMB">
            <g id="Base" fill="#E7E9ED">
                <rect id="Rectangle" x="0" y="0" width="158" height="158"></rect>
            </g>
            <g id="Group-2" transform="translate(45.385542, 34.000000)">
                <path d="M9.98112896,0.496404946 C9.42820393,0.496404946 9.42232832,0.564676157 9.97614624,0.650149373 L52.6784479,7.24058799 C53.2286211,7.32549869 53.6746245,7.84127069 53.6746245,8.39794229 L53.6746245,34.1290764 C53.6746245,34.6833548 54.1060178,35.2176703 54.6651454,35.327818 L58.6825468,36.1192427 C59.2295964,36.227011 59.9914752,35.9983268 60.3815464,35.6111463 L65.9523511,30.0816269 C66.343633,29.6932448 66.6608298,28.9247316 66.6608298,28.3842152 L66.6608298,1.49058855 C66.6608298,0.941516106 66.2132662,0.496404946 65.6596704,0.496404946 L9.98112896,0.496404946 Z" id="Fill-1" fill="#263156"></path>
                <g id="Group" transform="translate(0.547936, 63.214560)" fill="#18A1FF">
                    <rect id="Rectangle-5" x="0" y="19.9448859" width="65.083312" height="4.19892335"></rect>
                    <rect id="Rectangle-5-Copy" transform="translate(32.541656, 10.497308) rotate(-90.000000) translate(-32.541656, -10.497308) " x="22.0443476" y="8.92271213" width="20.9946168" height="3.14919251"></rect>
                    <circle id="Oval" cx="32.541656" cy="22.0443476" r="4.19892335"></circle>
                </g>
                <path d="M50.508993,39.4635413 C49.9616721,39.3840832 49.5179808,38.8703959 49.5179808,38.319659 L49.5179808,13.1281126 C49.5179808,12.575822 49.0849446,12.0449284 48.544193,11.9410659 L9.46066127,4.43426439 C8.92285312,4.33096719 8.48687347,4.69608057 8.48687347,5.25247666 L8.48687347,65.630763 C8.48687347,66.1859463 8.9241587,66.7203861 9.4627881,66.8243153 L56.366834,75.8745092 C56.9058168,75.9785066 57.3427487,75.612607 57.3427487,75.0545167 L57.3427487,41.463938 C57.3427487,40.9070712 56.8996357,40.3913119 56.3517364,40.3117699 L50.508993,39.4635413 Z" id="Fill-4" fill="#263156"></path>
            </g>
        </g>
    </g>
</svg>